<svg width="206" height="24" viewBox="0 0 206 24" fill="none" xmlns="http://www.w3.org/2000/svg">
<path d="M8.8135 0H15.4805C16.2179 0 16.6788 0.320778 16.8631 0.962333L23.7145 19.5674C23.735 19.6258 23.7452 19.723 23.7452 19.8591C23.7452 19.9757 23.6735 20.1021 23.5301 20.2382C23.4073 20.3548 23.2536 20.4131 23.0693 20.4131H17.3854C16.7709 20.4131 16.3715 20.1701 16.1872 19.6841L15.4498 17.7594H8.84423L6.90863 20.4131C6.72429 20.8992 7.52311 20.4131 6.90863 20.4131H1.22475C1.04041 20.4131 0.876548 20.3548 0.73317 20.2382C0.610276 20.1021 0.548828 19.9757 0.548828 19.8591C0.548828 19.723 0.559069 19.6258 0.579552 19.5674L7.43094 0.962333C7.61528 0.320778 8.07613 0 8.8135 0Z" fill="white"/>
<path d="M27.4061 14.1725H30.4785C31.5026 14.1725 32.0659 14.0365 32.1683 13.7643L25.0097 0.90401C24.9892 0.845687 24.979 0.777643 24.979 0.699878C25.0609 0.233293 25.3169 0 25.7471 0H32.1683C32.5984 0 32.9262 0.233293 33.1515 0.699878L36.0088 6.44472L38.2823 0.699878C38.4871 0.233293 38.8353 0 39.3269 0H45.6867C45.8711 0 46.0349 0.068044 46.1783 0.204132C46.3217 0.320778 46.3934 0.456866 46.3934 0.612394C46.3934 0.767923 46.3831 0.865129 46.3627 0.90401L40.2486 14.4642C39.1836 16.836 38.057 18.4204 36.869 19.2175C35.7015 20.0146 33.8274 20.4131 31.2466 20.4131H27.4061C27.1808 20.4131 26.9862 20.3354 26.8224 20.1798C26.6585 20.0243 26.5766 19.8396 26.5766 19.6258V14.9599C26.5766 14.7461 26.6585 14.5614 26.8224 14.4058C26.9862 14.2503 27.1808 14.1725 27.4061 14.1725Z" fill="white"/>
<path d="M52.0017 0H68.8382C69.0635 0 69.2581 0.0777644 69.422 0.233293C69.5858 0.388822 69.6678 0.573512 69.6678 0.787364V13.9976H70.9889C71.2142 13.9976 71.4088 14.0753 71.5726 14.2309C71.7365 14.3864 71.8184 14.5711 71.8184 14.7849V23.2126C71.8184 23.4265 71.7365 23.6112 71.5726 23.7667C71.4088 23.9222 71.2142 24 70.9889 24H64.967C64.7417 24 64.5472 23.9222 64.3833 23.7667C64.2194 23.6112 64.1375 23.4265 64.1375 23.2126V20.4131H55.7807V23.2126C55.7807 23.4265 55.6987 23.6112 55.5349 23.7667C55.371 23.9222 55.1764 24 54.9511 24H48.9293C48.704 24 48.5094 23.9222 48.3455 23.7667C48.1817 23.6306 48.0997 23.4459 48.0997 23.2126V14.7849C48.0997 14.5711 48.1817 14.3864 48.3455 14.2309C48.5094 14.0753 48.704 13.9976 48.9293 13.9976H49.0522C49.6667 13.9976 50.1685 13.8032 50.5576 13.4143C50.9673 13.0255 51.1721 12.4714 51.1721 11.7521V0.787364C51.1721 0.573512 51.254 0.388822 51.4179 0.233293C51.5818 0.0777644 51.7763 0 52.0017 0ZM61.9869 6.41555H58.853V11.7813C58.853 12.87 58.7609 13.6087 58.5765 13.9976H61.9869V6.41555Z" fill="white"/>
<path d="M76.1834 0H81.7443C81.9697 0 82.1642 0.0777644 82.3281 0.233293C82.492 0.388822 82.5739 0.573512 82.5739 0.787364V8.74848L87.7662 0.670717C88.0325 0.223572 88.4524 0 89.0259 0H93.8802C94.1055 0 94.3001 0.0777644 94.464 0.233293C94.6278 0.388822 94.7097 0.573512 94.7097 0.787364V19.6258C94.7097 19.8396 94.6278 20.0243 94.464 20.1798C94.3001 20.3354 94.1055 20.4131 93.8802 20.4131H88.3192C88.0939 20.4131 87.8993 20.3354 87.7355 20.1798C87.5716 20.0243 87.4897 19.8396 87.4897 19.6258V12.3062L82.2974 19.7424C81.9901 20.1896 81.5702 20.4131 81.0377 20.4131H76.1834C75.9581 20.4131 75.7635 20.3354 75.5996 20.1798C75.4357 20.0243 75.3538 19.8396 75.3538 19.6258V0.787364C75.3538 0.573512 75.4357 0.388822 75.5996 0.233293C75.7635 0.0777644 75.9581 0 76.1834 0Z" fill="white"/>
<path d="M98.4508 0H116.455C116.68 0 116.875 0.0777644 117.039 0.233293C117.203 0.388822 117.284 0.573512 117.284 0.787364V5.48238C117.284 5.69623 117.203 5.88092 117.039 6.03645C116.875 6.19198 116.68 6.26975 116.455 6.26975H111.355V19.6258C111.355 19.8396 111.273 20.0243 111.109 20.1798C110.945 20.3354 110.751 20.4131 110.525 20.4131H104.381C104.155 20.4131 103.961 20.3354 103.797 20.1798C103.633 20.0243 103.551 19.8396 103.551 19.6258V6.26975H98.4508C98.2255 6.26975 98.0309 6.19198 97.8671 6.03645C97.7032 5.88092 97.6213 5.69623 97.6213 5.48238V0.787364C97.6213 0.573512 97.7032 0.388822 97.8671 0.233293C98.0309 0.0777644 98.2255 0 98.4508 0Z" fill="white"/>
<path d="M127.583 14.7266H137.046C137.271 14.7266 137.466 14.8044 137.63 14.9599C137.793 15.1154 137.875 15.3001 137.875 15.514V19.6258C137.875 19.8396 137.793 20.0243 137.63 20.1798C137.466 20.3354 137.271 20.4131 137.046 20.4131H121.039C120.813 20.4131 120.619 20.3354 120.455 20.1798C120.291 20.0243 120.209 19.8396 120.209 19.6258V0.787364C120.209 0.573512 120.291 0.388822 120.455 0.233293C120.619 0.0777644 120.813 0 121.039 0H136.8C137.025 0 137.22 0.0777644 137.384 0.233293C137.548 0.388822 137.63 0.573512 137.63 0.787364V4.89915C137.63 5.113 137.548 5.29769 137.384 5.45322C137.22 5.60875 137.025 5.68651 136.8 5.68651H127.583V7.52369H136.124C136.349 7.52369 136.544 7.60146 136.708 7.75699C136.872 7.91252 136.954 8.09721 136.954 8.31106V12.1021C136.954 12.3159 136.872 12.5006 136.708 12.6561C136.544 12.8117 136.349 12.8894 136.124 12.8894H127.583V14.7266Z" fill="white"/>
<path d="M142.401 0H151.557C154.506 0 156.811 0.602674 158.47 1.80802C160.129 3.01337 160.958 4.79222 160.958 7.14459C160.958 9.49696 160.129 11.2369 158.47 12.3645C156.831 13.4921 154.527 14.0559 151.557 14.0559H149.56V19.6258C149.56 19.8396 149.478 20.0243 149.314 20.1798C149.15 20.3354 148.956 20.4131 148.73 20.4131H142.401C142.176 20.4131 141.981 20.3354 141.818 20.1798C141.654 20.0243 141.572 19.8396 141.572 19.6258V0.787364C141.572 0.573512 141.654 0.388822 141.818 0.233293C141.981 0.0777644 142.176 0 142.401 0ZM149.406 5.42406V8.661H151.557C151.926 8.661 152.253 8.53463 152.54 8.2819C152.827 8.00972 152.97 7.63062 152.97 7.14459C152.97 6.65857 152.858 6.2503 152.632 5.91981C152.407 5.58931 152.049 5.42406 151.557 5.42406H149.406Z" fill="white"/>
<path d="M164.394 0H169.955C170.18 0 170.375 0.0777644 170.539 0.233293C170.703 0.388822 170.784 0.573512 170.784 0.787364V8.74848L175.977 0.670717C176.243 0.223572 176.663 0 177.236 0H182.091C182.316 0 182.511 0.0777644 182.675 0.233293C182.838 0.388822 182.92 0.573512 182.92 0.787364V19.6258C182.92 19.8396 182.838 20.0243 182.675 20.1798C182.511 20.3354 182.316 20.4131 182.091 20.4131H176.53C176.305 20.4131 176.11 20.3354 175.946 20.1798C175.782 20.0243 175.7 19.8396 175.7 19.6258V12.3062L170.508 19.7424C170.201 20.1896 169.781 20.4131 169.248 20.4131H164.394C164.169 20.4131 163.974 20.3354 163.81 20.1798C163.646 20.0243 163.564 19.8396 163.564 19.6258V0.787364C163.564 0.573512 163.646 0.388822 163.81 0.233293C163.974 0.0777644 164.169 0 164.394 0Z" fill="white"/>
<path d="M189.703 12.8019C187.491 11.4605 186.385 9.62333 186.385 7.2904C186.385 4.93803 187.214 3.13973 188.874 1.8955C190.533 0.631835 192.837 0 195.786 0H204.881C205.106 0 205.3 0.0777644 205.464 0.233293C205.628 0.388822 205.71 0.573512 205.71 0.787364V19.6258C205.71 19.8396 205.628 20.0243 205.464 20.1798C205.3 20.3354 205.106 20.4131 204.881 20.4131H198.859C198.633 20.4131 198.439 20.3354 198.275 20.1798C198.111 20.0243 198.029 19.8396 198.029 19.6258V14.0559H196.77L194.127 19.6258C193.882 20.1507 193.441 20.4131 192.806 20.4131H186.508C186.323 20.4131 186.16 20.3548 186.016 20.2382C185.893 20.1021 185.832 19.966 185.832 19.8299C185.832 19.6938 185.863 19.5674 185.924 19.4508L189.703 12.8019ZM198.029 8.51519V5.42406H195.786C195.315 5.42406 194.957 5.58931 194.711 5.91981C194.486 6.23086 194.373 6.60024 194.373 7.02795C194.373 7.45565 194.496 7.81531 194.742 8.10693C194.988 8.3791 195.336 8.51519 195.786 8.51519H198.029Z" fill="white"/>
</svg>
